# File created by Blade
# Date/Time:  Thu Sep 25 14:26:36 2014
# Frame Rate: 120.000 fps
#------------------------------------------------------
:FULLY-SPECIFIED
:DEGREES
939
root 7.870820 24.615669 -2.483836 -20.148221 83.472075 76.095578
Spine -36.572993 -3.428172 -2.445277
Head -104.582170 12.771705 15.896049
LeftShoulder -85.955803 71.744592 3.046891
LeftArm 130.059904 -0.906365 -175.494988
LeftForeArm 40.362760 0.000000 83.220693
LeftHand -37.632712 -0.000000 103.111559
LeftHandThumb1 -26.253704 0.000000 33.147579
RightShoulder -22.147880 37.276559 -37.338955
RightArm 239.520782 118.710427 233.893615
RightForeArm -54.874447 0.000000 64.641682
RightHand -9.159326 -0.000000 -80.219889
RightHandThumb1 -24.326973 -0.000000 -32.862282
LeftUpLeg 43.927539 -5.889277 23.805220
LeftLeg 76.945424 -0.000000 -0.000000
LeftFoot -32.384837 18.939946 -29.361701
LeftToeBase 9.842939 -0.000000 -0.000000
RightUpLeg 37.338353 16.001002 -24.686622
RightLeg 81.672365 -0.000000 -0.000000
RightFoot -23.701285 -30.856005 9.536750
RightToeBase 3.751531 -0.000000 -0.000000
940
root 7.878538 24.729306 -2.446531 -19.600943 83.599862 76.457630
Spine -36.863356 -3.520967 -2.584879
Head -104.669013 12.923836 15.853476
LeftShoulder -82.745870 71.317733 6.407190
LeftArm 130.328168 -2.003962 -175.037675
LeftForeArm 40.416569 -0.000000 82.521147
LeftHand -38.457635 -0.000000 101.831590
LeftHandThumb1 -26.253704 0.000000 33.147579
RightShoulder -22.587578 35.380320 -37.930505
RightArm 241.616890 117.960610 236.913686
RightForeArm -54.588351 -0.000000 64.597087
RightHand -9.433958 -0.000000 -79.730203
RightHandThumb1 -24.326973 -0.000000 -32.862282
LeftUpLeg 44.103052 -6.036697 23.630345
LeftLeg 76.335244 -0.000000 -0.000000
LeftFoot -31.962817 18.733577 -28.927102
LeftToeBase 9.873136 -0.000000 -0.000000
RightUpLeg 37.617156 15.750908 -24.746094
RightLeg 81.126963 -0.000000 -0.000000
RightFoot -23.571058 -30.834566 9.536728
RightToeBase 3.718674 -0.000000 -0.000000
941
root 7.884486 24.842048 -2.409038 -19.371155 83.710362 76.516535
Spine -37.188601 -3.723689 -2.684355
Head -104.606701 13.337724 16.071233
LeftShoulder -82.172370 71.319059 7.322912
LeftArm 130.386698 -2.527224 -174.990479
LeftForeArm 39.576521 -0.000000 81.908799
LeftHand -38.812929 -0.000000 100.931436
LeftHandThumb1 -26.253704 0.000000 33.147579
RightShoulder -22.323040 35.499938 -37.612214
RightArm 241.105394 117.852535 235.432577
RightForeArm -53.937557 -0.000000 63.567458
RightHand -9.493313 0.000000 -79.725685
RightHandThumb1 -24.326973 -0.000000 -32.862282
LeftUpLeg 44.209374 -6.050741 23.649577
LeftLeg 75.671931 -0.000000 -0.000000
LeftFoot -31.664294 18.882014 -28.987712
LeftToeBase 9.799485 -0.000000 -0.000000
RightUpLeg 37.888431 15.498849 -24.788033
RightLeg 80.580183 -0.000000 -0.000000
RightFoot -23.427873 -30.826468 9.493962
RightToeBase 3.826013 -0.000000 -0.000000
942
root 7.895146 24.954169 -2.372503 -19.069500 83.741271 76.689107
Spine -37.415904 -3.915762 -2.752344
Head -104.644598 13.732445 16.228708
LeftShoulder -81.561805 71.278945 8.434427
LeftArm 130.362557 -3.240691 -174.941172
LeftForeArm 38.871716 -0.000000 81.195413
LeftHand -39.180964 -0.000000 100.367841
LeftHandThumb1 -26.253704 0.000000 33.147579
RightShoulder -21.795294 36.219338 -37.014470
RightArm 239.619633 117.842126 232.398340
RightForeArm -52.990734 -0.000000 62.268976
RightHand -9.633759 -0.000000 -79.932140
RightHandThumb1 -24.326973 -0.000000 -32.862282
LeftUpLeg 44.411858 -6.025299 23.667906
LeftLeg 74.977118 -0.000000 -0.000000
LeftFoot -31.361918 18.982252 -29.054344
LeftToeBase 9.811196 -0.000000 -0.000000
RightUpLeg 38.179910 15.342867 -24.760607
RightLeg 80.025256 -0.000000 -0.000000
RightFoot -23.263174 -30.937067 9.458716
RightToeBase 3.730946 -0.000000 -0.000000
943
root 7.907557 25.063651 -2.333984 -19.063791 83.751982 76.634351
Spine -37.578690 -3.959554 -2.773300
Head -104.803069 13.951284 16.250807
LeftShoulder -83.912015 71.881518 6.423512
LeftArm 130.237537 -3.179210 -175.514541
LeftForeArm 37.548219 -0.000000 80.471800
LeftHand -39.993201 0.000000 100.960018
LeftHandThumb1 -26.253704 0.000000 33.147579
RightShoulder -21.438008 37.567736 -36.465297
RightArm 237.828355 118.439174 228.600498
RightForeArm -52.096856 -0.000000 60.674810
RightHand -9.598761 0.000000 -80.337870
RightHandThumb1 -24.326973 -0.000000 -32.862282
LeftUpLeg 44.708065 -6.078389 23.642190
LeftLeg 74.305179 -0.000000 -0.000000
LeftFoot -31.037854 18.964519 -29.089621
LeftToeBase 9.881049 -0.000000 -0.000000
RightUpLeg 38.522206 15.226389 -24.689068
RightLeg 79.498205 -0.000000 -0.000000
RightFoot -23.163394 -31.008157 9.458175
RightToeBase 3.888863 -0.000000 -0.000000
944
root 7.910976 25.160812 -2.305545 -18.166934 83.837431 77.335707
Spine -37.970159 -4.298256 -2.867656
Head -104.739598 14.559011 16.525488
LeftShoulder -88.203129 72.599471 2.776196
LeftArm 129.924154 -2.971682 -175.983402
LeftForeArm 37.109854 -0.000000 79.605572
LeftHand -40.004830 0.000000 100.141509
LeftHandThumb1 -26.253704 0.000000 33.147579
RightShoulder -19.762464 40.674493 -34.652789
RightArm 233.234545 119.573345 220.179118
RightForeArm -50.376262 -0.000000 58.220817
RightHand -9.378803 -0.000000 -81.107065
RightHandThumb1 -24.326973 -0.000000 -32.862282
LeftUpLeg 44.780560 -6.096471 23.511483
LeftLeg 73.726815 -0.000000 -0.000000
LeftFoot -30.692274 18.951834 -29.091773
LeftToeBase 9.917994 -0.000000 -0.000000
RightUpLeg 38.707877 15.036873 -24.764659
RightLeg 78.990443 -0.000000 -0.000000
RightFoot -22.963614 -31.100092 9.293212
RightToeBase 4.111985 -0.000000 -0.000000
945
root 7.921850 25.261806 -2.279008 -17.611488 83.849502 77.807425
Spine -38.168052 -4.295121 -2.913581
Head -104.910179 14.706191 16.438827
LeftShoulder -89.292995 72.846261 1.963386
LeftArm 129.872183 -3.212863 -176.207828
LeftForeArm 35.382302 0.000000 78.979818
LeftHand -39.502907 0.000000 99.868834
LeftHandThumb1 -26.253704 0.000000 33.147579
RightShoulder -18.308807 44.025409 -33.174326
RightArm 228.873449 121.323121 212.014937
RightForeArm -48.148585 -0.000000 55.766357
RightHand -8.350838 -0.000000 -81.764002
RightHandThumb1 -24.326973 -0.000000 -32.862282
LeftUpLeg 45.019107 -6.108255 23.408658
LeftLeg 73.100447 -0.000000 -0.000000
LeftFoot -30.298757 18.908472 -29.007775
LeftToeBase 9.915347 -0.000000 -0.000000
RightUpLeg 38.969570 14.942083 -24.777738
RightLeg 78.486926 -0.000000 -0.000000
RightFoot -22.752269 -31.254951 9.215327
RightToeBase 4.101322 -0.000000 -0.000000
946
root 7.931688 25.354141 -2.251272 -16.823036 83.933164 78.455444
Spine -38.454611 -4.475948 -2.959221
Head -104.967718 15.017765 16.494674
LeftShoulder -90.927151 73.051609 0.669989
LeftArm 129.785808 -3.387670 -176.263338
LeftForeArm 35.080414 -0.000000 78.261922
LeftHand -40.106979 -0.000000 99.495750
LeftHandThumb1 -26.253704 0.000000 33.147579
RightShoulder -16.253494 47.348126 -31.196704
RightArm 224.594919 123.405029 203.790391
RightForeArm -46.150039 -0.000000 53.315681
RightHand -7.889474 -0.000000 -82.182747
RightHandThumb1 -24.326973 -0.000000 -32.862282
LeftUpLeg 45.138333 -6.159875 23.296625
LeftLeg 72.516350 -0.000000 -0.000000
LeftFoot -29.874203 18.897842 -28.909917
LeftToeBase 9.708537 -0.000000 -0.000000
RightUpLeg 39.188914 14.748631 -24.848471
RightLeg 78.008894 -0.000000 -0.000000
RightFoot -22.267256 -31.664673 8.819356
RightToeBase 4.112532 -0.000000 -0.000000
947
root 7.937923 25.443877 -2.225782 -16.093308 84.035192 79.052900
Spine -38.746238 -4.570019 -3.002174
Head -105.098107 15.165406 16.431435
LeftShoulder -92.844780 73.392890 -1.027660
LeftArm 129.674311 -3.529393 -176.471294
LeftForeArm 34.037810 -0.000000 77.530026
LeftHand -40.028875 0.000000 99.337978
LeftHandThumb1 -26.253704 0.000000 33.147579
RightShoulder -14.154482 50.041399 -29.342319
RightArm 221.072579 125.467729 196.759781
RightForeArm -44.193179 -0.000000 51.097419
RightHand -7.448574 -0.000000 -82.659337
RightHandThumb1 -24.326973 -0.000000 -32.862282
LeftUpLeg 45.235291 -6.239507 23.162080
LeftLeg 71.957054 -0.000000 -0.000000
LeftFoot -29.506013 18.955780 -28.885883
LeftToeBase 9.694370 -0.000000 -0.000000
RightUpLeg 39.408534 14.549801 -24.901678
RightLeg 77.536026 -0.000000 -0.000000
RightFoot -22.012844 -31.849587 8.719869
RightToeBase 4.124265 -0.000000 -0.000000
948
root 7.946412 25.530029 -2.202738 -15.517422 84.104050 79.492880
Spine -39.021115 -4.670602 -2.997492
Head -105.211357 15.324921 16.336135
LeftShoulder -93.509155 73.511447 -1.381780
LeftArm 129.585061 -3.863155 -176.465744
LeftForeArm 33.097623 -0.000000 76.823213
LeftHand -41.656881 -0.000000 100.282392
LeftHandThumb1 -26.253704 0.000000 33.147579
RightShoulder -11.879888 52.182409 -27.445489
RightArm 217.835153 127.411425 190.430787
RightForeArm -42.184850 -0.000000 49.159281
RightHand -7.127952 -0.000000 -83.041101
RightHandThumb1 -24.326973 -0.000000 -32.862282
LeftUpLeg 45.339394 -6.297268 23.057702
LeftLeg 71.384234 -0.000000 -0.000000
LeftFoot -29.152483 19.089693 -28.733331
LeftToeBase 9.795370 -0.000000 -0.000000
RightUpLeg 39.590871 14.384131 -24.939777
RightLeg 77.078467 -0.000000 -0.000000
RightFoot -22.031581 -31.866415 8.918590
RightToeBase 4.479226 -0.000000 -0.000000
949
root 7.952065 25.608007 -2.181556 -14.795791 84.202481 80.062039
Spine -39.289895 -4.655880 -3.037755
Head -105.431527 15.361854 16.113968
LeftShoulder -94.228619 73.628497 -2.062719
LeftArm 129.621902 -4.054517 -176.474601
LeftForeArm 32.442861 -0.000000 76.178264
LeftHand -42.027938 -0.000000 100.000870
LeftHandThumb1 -26.253704 0.000000 33.147579
RightShoulder -10.531983 53.853075 -26.270604
RightArm 215.986046 129.359047 186.073728
RightForeArm -40.463862 0.000000 47.515585
RightHand -6.926091 -0.000000 -83.229949
RightHandThumb1 -24.326973 -0.000000 -32.862282
LeftUpLeg 45.374288 -6.361955 22.945951
LeftLeg 70.850069 -0.000000 -0.000000
LeftFoot -28.800080 19.152933 -28.698076
LeftToeBase 9.716245 -0.000000 -0.000000
RightUpLeg 39.767330 14.199117 -24.962780
RightLeg 76.659458 -0.000000 -0.000000
RightFoot -21.923512 -31.978780 9.087191
RightToeBase 4.394561 -0.000000 -0.000000
950
root 7.956543 25.677398 -2.163545 -13.728145 84.325788 80.974915
Spine -39.562395 -4.697692 -3.126148
Head -105.610826 15.395932 15.965974
LeftShoulder -95.602349 73.756610 -3.320242
LeftArm 129.590992 -4.082851 -176.476329
LeftForeArm 32.188171 -0.000000 75.481812
LeftHand -42.335301 -0.000000 99.661981
LeftHandThumb1 -26.253704 0.000000 33.147579
RightShoulder -9.080169 55.158072 -25.000151
RightArm 214.305014 131.118648 182.073453
RightForeArm -38.869002 -0.000000 45.980466
RightHand -6.439004 0.000000 -83.145550
RightHandThumb1 -24.326973 -0.000000 -32.862282
LeftUpLeg 45.359673 -6.448715 22.797411
LeftLeg 70.371446 -0.000000 -0.000000
LeftFoot -28.465591 19.115804 -28.722465
LeftToeBase 9.625686 -0.000000 -0.000000
RightUpLeg 39.917719 14.016342 -25.030097
RightLeg 76.252656 -0.000000 -0.000000
RightFoot -21.641738 -32.134586 8.751045
RightToeBase 4.662031 -0.000000 -0.000000
